<svg xmlns="http://www.w3.org/2000/svg" viewBox="0 0 40 56" fill="none">
<path fill-rule="evenodd" clip-rule="evenodd" d="M15.6558 43.0155L5.98378 47.2569C5.27261 47.5824 4.50143 47.7561 3.7194 47.767C3.15959 47.7716 2.60496 47.6597 2.09069 47.4385C1.58062 47.2167 1.13281 46.873 0.786541 46.4377C0.557469 46.1465 0.37676 45.8203 0.251355 45.4717C0.0802762 45.0033 -0.00482117 44.5078 0.000177577 44.0091V13.326C0.0047203 12.8026 0.0820902 12.2824 0.230082 11.7803C0.379229 11.2715 0.583326 10.7805 0.838711 10.3158C1.36738 9.35741 2.06971 8.5057 2.90988 7.80415C3.48011 7.32139 4.1164 6.92257 4.79944 6.61979L18.3606 0.672889C19.0746 0.351304 19.8478 0.182199 20.6308 0.176358C21.1906 0.171924 21.7452 0.283759 22.2595 0.5048C22.7696 0.726517 23.2175 1.07021 23.5636 1.50562C23.7927 1.79683 23.9734 2.12301 24.0988 2.47165C24.2699 2.94008 24.355 3.43555 24.35 3.93422V12.9626L34.0162 8.72374C34.7273 8.39829 35.4985 8.22457 36.2806 8.21368C36.8403 8.20924 37.3949 8.32108 37.9093 8.54212C38.4194 8.76383 38.8673 9.10752 39.2134 9.54294C39.4411 9.83085 39.6217 10.153 39.7486 10.4974C39.9195 10.9665 40.0046 11.4626 39.9998 11.9619V42.645C39.9952 43.1684 39.9179 43.6886 39.7699 44.1907C39.6207 44.6994 39.4166 45.1905 39.1612 45.6551C38.6326 46.6136 37.9302 47.4653 37.0901 48.1668C36.5198 48.6496 35.8836 49.0484 35.2005 49.3512L34.6093 48.1147L35.2005 49.3667L21.6394 55.3136C20.9282 55.639 20.157 55.8127 19.375 55.8236C18.8152 55.8282 18.2605 55.7164 17.7463 55.4952C17.2366 55.2726 16.7889 54.9291 16.4421 54.4943C16.213 54.2031 16.0323 53.877 15.9069 53.5283C15.7359 53.0599 15.6508 52.5644 15.6558 52.0658V43.0155ZM15.6558 40.0372L4.80525 44.7955C4.46672 44.9552 4.09928 45.0446 3.7252 45.0582C3.5877 45.0615 3.45077 45.0392 3.32139 44.9925C3.25819 44.9708 3.19935 44.9381 3.14752 44.8959C3.06146 44.825 2.99496 44.7332 2.95431 44.6293C2.87899 44.4396 2.84347 44.2364 2.84997 44.0323V13.3492C2.85686 12.9605 2.93408 12.5762 3.07794 12.215C3.34385 11.5367 3.73737 10.9156 4.23718 10.3854C4.72538 9.84699 5.31668 9.41206 5.97604 9.10636L19.5372 3.15946C19.8758 2.99971 20.2432 2.91032 20.6172 2.8967C20.7546 2.89386 20.8913 2.91544 21.0211 2.96045C21.084 2.98358 21.1427 3.01687 21.1949 3.05898C21.281 3.12996 21.3475 3.22173 21.3881 3.32561C21.4634 3.51536 21.499 3.71856 21.4925 3.92261V14.2157L20.455 14.6706C19.7716 14.9727 19.1352 15.3716 18.5655 15.855C17.7249 16.5561 17.0225 17.4079 16.4943 18.3667C16.2389 18.8313 16.0348 19.3224 15.8857 19.8312C15.7377 20.3332 15.6603 20.8534 15.6558 21.3768V40.0372ZM21.4925 17.1981C20.8866 17.4992 20.342 17.9112 19.887 18.413C19.3868 18.9429 18.9932 19.5641 18.7277 20.2427C18.5837 20.6038 18.5065 20.9881 18.4998 21.3768V38.7845C19.1056 38.4833 19.6502 38.0714 20.1053 37.5695C20.6051 37.0393 20.9986 36.4183 21.2645 35.7399C21.4084 35.3787 21.4856 34.9945 21.4925 34.6057V17.1981ZM24.35 15.939L35.187 11.1852C35.5256 11.0259 35.893 10.9371 36.267 10.9244C36.4043 10.9215 36.5411 10.9431 36.6708 10.9881C36.7338 11.0113 36.7925 11.0445 36.8447 11.0867C36.9303 11.1573 36.9967 11.2483 37.0379 11.3513C37.113 11.5418 37.1485 11.7456 37.1422 11.9503V42.6334C37.1353 43.0215 37.0581 43.4051 36.9143 43.7656C36.6489 44.4448 36.2553 45.0667 35.755 45.5972C35.2668 46.1356 34.6755 46.5705 34.0162 46.8762L20.455 52.8231C20.1166 52.9831 19.7491 53.0725 19.375 53.0859C19.2375 53.0891 19.1005 53.0668 18.9712 53.0202C18.9079 52.9977 18.8491 52.9643 18.7973 52.9217C18.7112 52.8515 18.6446 52.7604 18.6041 52.657C18.5288 52.4672 18.4933 52.264 18.4998 52.0599V41.7683L19.5444 41.3102L19.5507 41.3235C20.2338 41.0208 20.8701 40.6219 21.4403 40.1392C22.2805 39.4376 22.9828 38.5859 23.5115 37.6275C23.7669 37.1628 23.9709 36.6718 24.1201 36.163C24.2681 35.6609 24.3455 35.1407 24.35 34.6173V15.939ZM33.5158 44.5463L28.3302 46.8184C27.4936 47.1855 26.8096 46.8435 26.8096 46.0456V37.189C26.8096 36.3988 27.4897 35.4501 28.3302 35.0927L33.5158 32.8206C34.3524 32.4515 35.0364 32.7955 35.0364 33.5934V42.4635C35.0364 43.2402 34.3563 44.1772 33.5158 44.5463ZM6.3663 23.3533L11.3279 21.0793C12.1316 20.7122 12.7827 19.7751 12.7827 18.983V10.1129C12.7827 9.31493 12.1297 8.97295 11.3279 9.34005L6.3663 11.6141C5.56063 11.9715 4.91145 12.9202 4.91145 13.7104V22.5805C4.91145 23.3784 5.5645 23.7204 6.3663 23.3533Z" fill="#F05843"/>
</svg>
